<?xml version="1.0" standalone="no"?>
<!DOCTYPE svg PUBLIC "-//W3C//DTD SVG 20010904//EN"
 "http://www.w3.org/TR/2001/REC-SVG-20010904/DTD/svg10.dtd">
<svg version="1.0" xmlns="http://www.w3.org/2000/svg"
 width="429.000000pt" height="875.000000pt" viewBox="0 0 429.000000 875.000000"
 preserveAspectRatio="xMidYMid meet">

<g transform="translate(0.000000,875.000000) scale(0.100000,-0.100000)"
fill="#000000" stroke="none">
<path d="M61 6188 c7 -13 202 -351 434 -753 232 -401 585 -1013 785 -1360 199
-346 395 -686 435 -755 40 -69 157 -271 260 -450 103 -179 188 -326 190 -328
1 -1 285 487 630 1085 346 599 661 1144 701 1213 40 69 231 400 424 735 194
336 357 616 362 623 8 9 -415 12 -2111 12 l-2122 0 12 -22z m4147 -26 c-1 -5
-102 -179 -222 -388 -192 -331 -601 -1040 -898 -1554 -386 -668 -528 -914
-688 -1190 -101 -173 -195 -334 -208 -358 -14 -24 -28 -40 -32 -35 -4 4 -112
190 -240 413 -128 223 -266 461 -306 530 -82 142 -483 836 -689 1195 -341 592
-769 1333 -787 1363 l-20 32 2047 0 c1126 0 2045 -4 2043 -8z"/>
<path d="M1777 6054 c-8 -8 1 -24 14 -24 5 0 9 7 9 15 0 15 -12 20 -23 9z"/>
<path d="M632 6018 c4 -37 25 -49 30 -17 4 32 24 35 32 4 8 -31 22 -32 30 -2
11 43 8 47 -45 47 l-50 0 3 -32z"/>
<path d="M789 6036 c9 -11 12 -37 9 -81 l-4 -66 30 3 c24 2 36 11 51 41 l20
37 -20 38 c-17 32 -25 37 -59 40 -35 3 -38 2 -27 -12z m66 -36 c14 -27 14 -33
0 -60 -9 -16 -18 -30 -20 -30 -3 0 -5 27 -5 60 0 33 2 60 5 60 2 0 11 -13 20
-30z"/>
<path d="M1350 6025 c0 -21 -4 -24 -27 -19 -37 6 -53 -6 -59 -47 -8 -54 13
-73 79 -70 l27 1 0 80 c0 47 -4 80 -10 80 -5 0 -10 -11 -10 -25z m-16 -51 c28
-27 12 -64 -26 -64 -14 0 -18 8 -18 33 0 49 16 60 44 31z"/>
<path d="M2380 5971 c0 -47 4 -81 10 -81 6 0 10 18 10 40 0 29 5 42 20 50 30
16 40 4 40 -46 0 -28 4 -43 10 -39 16 10 12 91 -5 105 -8 7 -25 10 -40 6 -20
-5 -25 -3 -25 13 0 11 -4 23 -10 26 -6 4 -10 -23 -10 -74z"/>
<path d="M2858 6039 c7 -7 12 -38 12 -69 0 -31 -5 -62 -12 -69 -11 -10 -5 -12
27 -9 35 3 43 8 60 41 l20 37 -21 38 c-18 31 -28 37 -60 40 -31 3 -37 1 -26
-9z m67 -41 c11 -28 11 -37 -1 -61 -8 -15 -18 -26 -22 -23 -7 4 -3 116 4 116
3 0 11 -15 19 -32z"/>
<path d="M3330 5970 c0 -47 4 -80 10 -80 6 0 10 6 10 14 0 25 19 28 46 7 40
-31 52 -25 19 9 -27 28 -27 31 -12 48 27 30 20 46 -9 23 -37 -29 -44 -27 -44
19 0 22 -4 40 -10 40 -6 0 -10 -33 -10 -80z"/>
<path d="M3495 6018 c4 -18 9 -35 11 -37 7 -8 24 12 24 30 0 10 7 19 15 19 8
0 15 -9 15 -19 0 -31 19 -35 30 -6 16 42 13 45 -46 45 l-56 0 7 -32z"/>
<path d="M2232 6019 c-10 -15 -11 -24 -3 -32 6 -6 11 -28 11 -49 0 -44 27 -66
60 -48 30 16 24 30 -10 24 -29 -6 -30 -6 -30 35 0 37 2 41 25 41 14 0 25 5 25
10 0 6 -11 10 -25 10 -16 0 -25 6 -25 15 0 21 -13 19 -28 -6z"/>
<path d="M956 5994 c-19 -18 -21 -75 -4 -92 15 -15 102 -16 93 -2 -3 6 -21 10
-40 10 -50 0 -52 18 -3 22 35 2 44 7 46 24 6 45 -59 72 -92 38z m63 -17 c13
-17 5 -27 -24 -27 -12 0 -25 3 -28 7 -9 8 12 33 28 33 7 0 18 -6 24 -13z"/>
<path d="M1110 5991 c-14 -26 -13 -74 2 -89 14 -14 88 -16 88 -2 0 6 -15 10
-34 10 -51 0 -54 18 -4 22 32 2 44 8 46 21 9 47 -76 79 -98 38z m69 -14 c13
-17 5 -27 -24 -27 -12 0 -25 3 -28 7 -9 8 12 33 28 33 7 0 18 -6 24 -13z"/>
<path d="M1437 6004 c-17 -17 -5 -41 28 -57 47 -22 44 -37 -6 -37 -24 0 -38
-4 -34 -10 10 -17 95 -12 102 5 6 17 -23 55 -42 55 -7 0 -19 7 -26 17 -13 15
-11 16 24 10 27 -4 37 -3 34 6 -4 13 -69 22 -80 11z"/>
<path d="M1760 6000 c0 -5 5 -10 10 -10 6 0 10 -18 10 -40 0 -22 -4 -40 -10
-40 -5 0 -10 -4 -10 -10 0 -5 16 -10 35 -10 19 0 35 5 35 10 0 6 -7 10 -15 10
-11 0 -15 12 -15 50 0 43 -3 50 -20 50 -11 0 -20 -4 -20 -10z"/>
<path d="M1900 5948 c0 -32 4 -58 10 -58 6 0 10 17 10 38 0 31 5 41 24 50 30
14 36 8 36 -39 0 -21 5 -41 11 -44 7 -5 9 13 7 52 l-3 58 -47 0 -48 1 0 -58z"/>
<path d="M2546 5988 c-20 -29 -20 -62 0 -82 17 -18 99 -23 89 -6 -3 6 -22 10
-41 10 -46 0 -44 18 4 22 31 2 38 7 40 27 7 48 -64 70 -92 29z m63 -7 c7 -5
10 -14 7 -20 -10 -16 -56 -14 -56 2 0 26 23 35 49 18z"/>
<path d="M3040 6001 c0 -5 10 -11 22 -13 38 -5 33 -28 -6 -28 -30 0 -37 -4
-42 -27 -9 -36 18 -55 66 -47 19 4 37 8 39 10 2 2 0 27 -5 56 -9 50 -11 53
-41 56 -18 2 -33 -1 -33 -7z m48 -73 c-7 -20 -58 -23 -58 -4 0 11 10 16 31 16
20 0 29 -4 27 -12z"/>
<path d="M3173 5994 c-8 -21 2 -99 12 -99 6 0 11 17 13 37 4 44 33 68 58 47
19 -16 30 -4 14 15 -14 18 -90 17 -97 0z"/>
<path d="M1953 5760 c-39 -10 -86 -26 -103 -35 -28 -14 -85 -16 -486 -15 -250
0 -454 -2 -454 -5 0 -10 445 -775 451 -775 15 0 29 89 35 230 l6 155 77 73
c45 43 75 79 73 89 -6 28 217 238 234 220 2 -2 -13 -16 -35 -30 -67 -45 -181
-160 -181 -184 0 -14 -27 -46 -77 -92 l-77 -71 -8 -163 c-5 -102 -14 -180 -24
-211 -13 -37 -15 -75 -12 -159 l5 -111 47 -43 c75 -68 102 -52 49 29 -51 77
-33 151 44 183 32 13 35 12 91 -24 93 -63 132 -118 132 -188 0 -19 4 -23 19
-18 35 11 35 -16 0 -49 l-34 -31 30 33 c30 34 30 34 6 30 -22 -3 -25 2 -35 53
-17 80 -63 132 -155 174 -39 17 -41 17 -73 -2 -59 -34 -50 -64 89 -296 l35
-57 26 21 27 21 7 -44 c3 -23 7 -62 7 -85 1 -61 81 -187 81 -128 0 8 27 43 59
78 52 55 69 66 138 90 43 15 89 27 103 26 17 -1 12 -4 -15 -9 -122 -25 -223
-93 -268 -180 -17 -33 -30 -46 -49 -48 -43 -5 -58 21 -59 101 -1 40 -4 96 -7
126 -7 53 -7 53 -25 33 -12 -13 -16 -26 -11 -34 5 -7 7 -48 5 -90 -5 -129 8
-226 34 -253 20 -22 26 -24 72 -16 27 4 63 17 79 28 115 81 235 99 153 22 -18
-17 -54 -41 -80 -55 -44 -22 -88 -78 -73 -93 3 -3 24 5 47 18 131 74 204 111
217 110 8 0 -5 -9 -29 -20 -89 -39 -163 -90 -156 -108 10 -26 229 -401 235
-401 9 0 222 378 223 396 2 19 -88 79 -171 115 -32 13 -37 18 -17 14 27 -6
110 -48 234 -121 56 -32 95 -27 140 20 43 45 58 108 71 306 13 200 13 310 0
310 -20 0 -29 -51 -38 -214 -9 -177 -16 -199 -61 -194 -18 2 -33 18 -58 60
-48 82 -149 147 -268 171 -11 3 -4 3 15 2 74 -6 152 -45 213 -107 32 -32 63
-72 69 -88 5 -17 13 -30 17 -30 4 0 19 21 33 48 23 42 26 63 31 186 5 102 10
145 22 163 28 42 40 23 45 -77 l5 -93 79 138 c80 138 90 171 66 214 -23 45
-102 36 -178 -19 -67 -48 -74 -66 -81 -203 -7 -130 -12 -147 -40 -147 -29 0
-50 32 -70 104 -22 78 -52 115 -126 154 -46 25 -60 27 -165 27 -105 0 -119 -2
-166 -27 -65 -34 -110 -86 -124 -140 -15 -62 -42 -112 -63 -116 -29 -6 -47 17
-46 57 l1 36 7 -31 c14 -58 40 -72 62 -33 19 37 48 154 38 157 -28 10 12 57
44 50 6 -1 39 11 72 27 52 26 73 30 162 33 93 3 107 1 162 -23 82 -37 134 -95
151 -166 14 -62 34 -99 55 -99 24 0 29 21 35 141 7 137 22 169 100 219 92 59
165 49 190 -26 11 -33 9 -41 -20 -99 -29 -57 -33 -85 -11 -85 15 0 102 82 116
111 22 42 18 125 -11 220 -20 66 -27 118 -34 242 l-8 158 -59 58 c-32 31 -76
83 -98 116 -82 120 -251 236 -395 269 -90 22 -247 20 -337 -4z m17 -314 c9
-11 9 -39 2 -113 -11 -109 -24 -145 -58 -168 -35 -23 -221 -65 -285 -65 -82 0
-102 19 -107 102 -5 79 11 116 69 158 96 69 345 126 379 86z m471 -2 c146 -28
239 -74 280 -141 17 -27 20 -46 17 -92 -2 -32 -12 -70 -21 -85 -16 -24 -23
-26 -82 -26 -69 0 -217 31 -271 56 -51 24 -65 55 -76 170 -15 146 -10 149 153
118z m-257 -146 c51 -59 79 -137 84 -234 4 -75 2 -82 -23 -112 -28 -34 -52
-39 -87 -21 -15 8 -32 8 -63 -1 -80 -23 -111 21 -103 148 8 121 81 262 137
262 11 0 36 -19 55 -42z m-518 -693 c20 -48 18 -68 -10 -81 -20 -9 -24 -8 -34
18 -11 31 1 98 19 98 6 0 17 -16 25 -35z"/>
<path d="M2095 5306 c-86 -86 -123 -293 -63 -353 25 -25 26 -25 63 -7 35 16
39 16 66 0 58 -34 105 27 97 129 -8 94 -90 255 -130 255 -5 0 -20 -11 -33 -24z"/>
<path d="M1637 4624 c-15 -15 -7 -63 13 -74 17 -9 20 -8 20 7 -1 28 -24 76
-33 67z"/>
<path d="M2526 5667 c69 -51 170 -157 214 -224 17 -27 49 -60 70 -76 44 -31
46 -38 55 -232 4 -71 13 -154 22 -184 l15 -53 17 28 c62 102 451 775 451 780
0 2 -203 4 -451 4 l-451 0 58 -43z"/>
<path d="M1903 4134 c-62 -34 -73 -47 -53 -59 17 -11 140 65 140 86 0 16 -25
9 -87 -27z"/>
</g>
</svg>
