<?xml version="1.0" standalone="no"?>
<!DOCTYPE svg PUBLIC "-//W3C//DTD SVG 20010904//EN"
 "http://www.w3.org/TR/2001/REC-SVG-20010904/DTD/svg10.dtd">
<svg version="1.0" xmlns="http://www.w3.org/2000/svg"
 width="989.000000pt" height="857.000000pt" viewBox="0 0 989.000000 857.000000"
 preserveAspectRatio="xMidYMid meet">

<g transform="translate(0.000000,857.000000) scale(0.100000,-0.100000)"
fill="#000000" stroke="none">
<path d="M18 8538 c11 -18 1123 -1945 2472 -4283 1349 -2337 2453 -4251 2454
-4252 1 -1 4204 7277 4919 8519 l27 48 -4946 0 -4946 0 20 -32z m9619 -210
c-46 -79 -1120 -1940 -2387 -4136 -1267 -2196 -2306 -3989 -2310 -3985 -4 5
-1022 1767 -2262 3918 -1241 2151 -2312 4008 -2381 4128 l-126 217 4774 0
4774 0 -82 -142z"/>
<path d="M4034 8196 c-12 -31 0 -51 31 -51 27 0 30 3 30 30 0 25 -4 30 -28 33
-17 2 -29 -2 -33 -12z"/>
<path d="M1350 8178 c1 -36 29 -151 38 -160 20 -20 39 9 47 67 6 54 7 55 40
55 32 0 33 -1 40 -49 4 -27 13 -58 20 -68 12 -16 15 -16 28 -3 12 13 37 121
37 159 0 8 -38 11 -125 11 -94 0 -125 -3 -125 -12z"/>
<path d="M1724 8175 c-8 -20 4 -35 27 -35 18 0 19 -8 19 -144 0 -142 0 -145
-22 -148 -15 -2 -23 -10 -23 -23 0 -18 8 -20 63 -23 46 -2 71 2 89 13 26 18
93 146 93 180 0 32 -66 161 -91 179 -31 21 -147 23 -155 1z m163 -100 c18 -33
32 -69 32 -80 0 -31 -62 -139 -81 -143 -17 -3 -18 9 -18 143 0 134 1 146 18
143 9 -2 31 -30 49 -63z"/>
<path d="M3047 8184 c-4 -4 -7 -33 -7 -65 l0 -58 -27 15 c-58 29 -139 8 -162
-43 -6 -13 -11 -53 -11 -88 0 -35 5 -75 11 -88 23 -52 110 -74 158 -41 22 16
24 16 33 0 13 -23 37 -20 43 7 3 12 4 98 3 192 -3 144 -5 170 -18 173 -9 1
-19 0 -23 -4z m-35 -171 c57 -55 20 -163 -56 -163 -54 1 -66 19 -66 95 0 53 4
71 18 81 29 22 73 17 104 -13z"/>
<path d="M5437 8184 c-10 -11 -8 -357 2 -373 5 -8 16 -11 25 -8 13 5 16 23 16
95 l0 89 41 27 c27 19 51 26 72 24 l32 -3 5 -115 c4 -93 8 -115 20 -115 12 0
15 21 18 122 3 121 3 121 -24 142 -33 26 -79 27 -126 1 l-37 -20 -3 68 c-2 51
-7 67 -18 70 -9 1 -19 0 -23 -4z"/>
<path d="M6544 8175 c-8 -20 4 -35 27 -35 18 0 19 -8 19 -144 0 -142 0 -145
-22 -148 -15 -2 -23 -10 -23 -23 0 -18 8 -20 63 -23 46 -2 71 2 89 13 26 18
93 146 93 180 0 32 -66 161 -91 179 -31 21 -147 23 -155 1z m163 -100 c18 -33
32 -69 32 -80 0 -31 -62 -139 -81 -143 -17 -3 -18 9 -18 143 0 134 1 146 18
143 9 -2 31 -30 49 -63z"/>
<path d="M7667 8184 c-10 -11 -8 -357 2 -373 5 -8 16 -11 25 -8 12 5 16 20 16
57 0 74 17 74 99 1 72 -64 88 -71 98 -45 4 12 -14 35 -63 79 l-69 62 54 50
c39 35 53 54 48 66 -3 9 -10 17 -15 17 -4 0 -39 -27 -78 -59 l-69 -59 -5 106
c-4 86 -8 107 -20 110 -9 1 -19 0 -23 -4z"/>
<path d="M8030 8178 c1 -36 29 -151 38 -160 20 -20 39 9 47 67 6 54 7 55 40
55 32 0 33 -1 40 -49 4 -27 13 -58 20 -68 12 -16 15 -16 28 -3 12 13 37 121
37 159 0 8 -38 11 -125 11 -94 0 -125 -3 -125 -12z"/>
<path d="M5117 8164 c-4 -4 -7 -22 -7 -41 0 -26 -4 -33 -19 -33 -20 0 -35 -25
-25 -41 3 -5 14 -9 25 -9 17 0 19 -8 19 -95 0 -88 2 -98 25 -120 19 -20 34
-25 75 -25 41 0 56 5 75 25 29 28 32 53 9 62 -11 4 -23 -2 -33 -16 -14 -18
-25 -22 -57 -19 l-39 3 -3 92 -3 92 58 3 c50 3 58 6 58 23 0 17 -8 20 -57 23
l-57 3 -3 37 c-3 35 -24 53 -41 36z"/>
<path d="M2154 8081 c-45 -20 -64 -59 -64 -133 0 -81 8 -99 54 -128 29 -17 47
-20 113 -18 70 3 78 5 78 23 0 18 -8 20 -80 23 -56 2 -85 8 -97 19 -38 34 -23
42 80 45 l97 3 3 52 c3 45 -1 56 -26 84 -24 27 -37 33 -83 35 -30 2 -64 0 -75
-5z m118 -58 c10 -9 18 -27 18 -40 0 -22 -3 -23 -75 -23 -70 0 -75 1 -75 22 0
12 7 30 17 40 21 23 89 24 115 1z"/>
<path d="M2524 8081 c-45 -20 -64 -59 -64 -133 0 -81 8 -99 54 -128 29 -17 47
-20 113 -18 70 3 78 5 78 23 0 18 -8 20 -80 23 -56 2 -85 8 -97 19 -38 34 -23
42 80 45 l97 3 3 52 c3 45 -1 56 -26 84 -24 27 -37 33 -83 35 -30 2 -64 0 -75
-5z m118 -58 c10 -9 18 -27 18 -40 0 -22 -3 -23 -75 -23 -70 0 -75 1 -75 22 0
12 7 30 17 40 21 23 89 24 115 1z"/>
<path d="M3240 8070 c-21 -21 -26 -55 -10 -80 5 -8 47 -33 92 -55 62 -31 83
-46 83 -60 0 -18 -8 -20 -65 -23 -38 -2 -74 2 -87 9 -27 15 -47 2 -38 -23 11
-27 60 -41 136 -36 56 3 74 8 86 23 45 62 20 104 -88 153 -101 45 -105 65 -11
60 37 -2 75 -8 84 -12 29 -13 36 23 9 46 -34 27 -163 26 -191 -2z"/>
<path d="M3984 8076 c-9 -23 4 -36 37 -36 l29 0 0 -94 0 -95 -32 -3 c-25 -2
-33 -8 -33 -23 0 -19 7 -20 90 -20 83 0 90 1 90 20 0 15 -8 21 -32 23 l-32 3
-3 117 -3 117 -53 3 c-39 2 -54 -1 -58 -12z"/>
<path d="M4327 8083 c-10 -10 -8 -256 2 -272 5 -8 16 -11 25 -8 13 5 16 23 16
95 l0 89 40 27 c43 28 81 33 98 13 6 -7 13 -60 14 -118 2 -84 6 -104 18 -104
21 0 27 231 7 258 -21 29 -89 33 -132 8 -44 -26 -41 -25 -48 -1 -5 19 -27 27
-40 13z"/>
<path d="M5864 8081 c-45 -20 -64 -59 -64 -133 0 -81 8 -99 54 -128 29 -17 47
-20 113 -18 70 3 78 5 78 23 0 18 -8 20 -80 23 -56 2 -85 8 -97 19 -38 34 -23
42 80 45 l97 3 3 52 c3 45 -1 56 -26 84 -24 27 -37 33 -83 35 -30 2 -64 0 -75
-5z m118 -58 c10 -9 18 -27 18 -40 0 -22 -3 -23 -75 -23 -70 0 -75 1 -75 22 0
12 7 30 17 40 21 23 89 24 115 1z"/>
<path d="M6967 8077 c-10 -26 8 -36 68 -39 55 -3 59 -5 66 -30 l7 -28 -73 0
c-92 0 -115 -16 -122 -82 -5 -40 -2 -50 20 -72 22 -21 35 -26 79 -26 32 0 62
6 76 16 20 14 23 14 28 0 8 -21 30 -20 38 0 4 9 3 64 0 122 -9 136 -21 152
-117 152 -45 0 -66 -4 -70 -13z m141 -174 c4 -30 -45 -55 -101 -51 -35 3 -43
7 -45 26 -7 47 3 53 75 50 61 -3 68 -5 71 -25z"/>
<path d="M7296 8075 c-9 -25 -7 -248 3 -264 5 -8 16 -11 25 -8 13 5 16 22 16
85 0 77 0 78 39 116 31 31 44 37 72 34 26 -2 34 -8 39 -28 4 -16 13 -25 25
-25 32 0 32 49 1 80 -34 34 -89 34 -138 0 l-37 -25 -3 23 c-4 26 -33 35 -42
12z"/>
<path d="M4760 7559 c-340 -25 -615 -129 -873 -330 -63 -49 -241 -223 -303
-295 -39 -46 -44 -56 -34 -74 6 -11 9 -29 5 -39 -6 -20 -90 -102 -180 -176
-93 -76 -155 -137 -173 -170 -12 -24 -18 -96 -28 -375 l-13 -345 -35 -111
c-43 -139 -53 -264 -35 -444 7 -69 13 -146 14 -171 1 -57 20 -82 123 -163 103
-80 127 -93 147 -76 24 20 18 59 -17 114 -18 28 -35 53 -38 56 -7 6 -33 60
-50 105 -22 54 -22 86 -1 153 25 84 58 116 165 162 78 33 79 33 95 14 9 -11
61 -46 115 -79 111 -67 192 -136 238 -203 37 -53 68 -164 68 -239 0 -57 9 -64
44 -38 25 19 50 19 66 0 17 -21 6 -43 -56 -109 l-57 -59 5 -93 c6 -108 22
-144 66 -144 64 0 91 41 127 197 28 121 49 179 73 206 16 18 15 18 -9 12 -30
-7 -64 19 -55 42 3 8 6 19 6 23 0 5 17 21 37 35 46 31 93 33 100 5 5 -17 10
-16 57 20 69 52 188 106 289 132 69 17 103 20 241 16 185 -5 226 -15 377 -90
73 -36 112 -64 163 -115 79 -79 109 -133 132 -234 30 -139 45 -178 78 -214 33
-35 66 -44 94 -26 21 13 31 77 32 201 1 189 16 360 37 413 35 92 129 182 273
260 121 66 197 76 275 35 90 -48 138 -178 103 -279 -6 -19 -29 -61 -50 -94
-64 -102 -76 -129 -71 -157 7 -37 26 -41 75 -15 57 29 220 191 247 245 26 51
40 179 30 267 -5 34 -20 100 -35 146 -14 46 -37 118 -50 159 -37 115 -43 165
-50 378 -10 339 -20 480 -38 506 -8 13 -53 51 -100 85 -59 43 -95 78 -122 118
-21 32 -41 60 -44 63 -4 3 -11 15 -14 28 -18 58 -252 314 -381 418 -135 109
-333 218 -486 268 -108 35 -262 65 -365 71 -49 3 -100 7 -114 9 -14 1 -68 -1
-120 -5z m755 -770 c189 -31 383 -87 490 -142 126 -63 242 -181 266 -270 7
-25 9 -86 6 -152 -5 -121 -24 -181 -72 -225 -25 -23 -34 -25 -153 -29 -140 -3
-199 4 -407 54 -190 46 -260 69 -292 100 -15 14 -30 25 -33 25 -3 0 -20 24
-37 53 -38 63 -48 122 -65 360 -19 275 -16 277 297 226z m-1034 2 c23 -18 24
-25 22 -123 -4 -142 -22 -334 -38 -389 -14 -50 -51 -114 -81 -141 -38 -32
-104 -59 -220 -89 -285 -72 -508 -103 -589 -80 -47 13 -86 44 -108 86 -45 87
-49 287 -8 365 13 25 28 54 34 65 12 24 92 89 163 131 153 94 519 191 725 193
62 1 82 -3 100 -18z m484 -323 c125 -135 225 -404 225 -600 0 -93 -21 -210
-39 -216 -6 -2 -11 -9 -11 -17 0 -17 -68 -74 -98 -82 -37 -9 -92 4 -131 32
-37 25 -75 33 -85 16 -11 -16 -96 -51 -127 -51 -46 0 -119 47 -119 77 0 7 -4
13 -10 13 -5 0 -10 8 -10 18 0 10 -4 22 -9 27 -31 35 -40 210 -16 322 52 241
195 497 290 518 17 4 35 8 40 10 18 5 60 -23 100 -67z"/>
<path d="M4846 6499 c-116 -31 -280 -368 -293 -601 -7 -126 20 -221 79 -280
49 -49 81 -50 158 -3 62 38 81 42 102 22 7 -7 20 -16 28 -20 8 -4 26 -14 40
-22 59 -35 128 2 171 92 34 70 39 230 11 341 -41 161 -141 368 -207 427 -54
48 -60 51 -89 44z"/>
<path d="M2027 7352 c379 -662 1040 -1801 1046 -1802 4 0 7 6 7 14 0 7 13 55
29 107 28 88 30 108 35 309 11 394 17 471 36 507 20 38 56 73 156 154 165 134
233 216 169 205 -30 -6 -33 9 -4 24 11 7 19 14 16 16 -12 12 269 297 356 361
26 19 47 39 47 44 0 5 11 11 25 15 14 3 25 10 25 15 0 5 7 9 15 9 8 0 15 5 15
10 0 6 6 10 14 10 8 0 16 7 20 15 3 8 15 15 26 15 11 0 20 5 20 10 0 7 -353
10 -1040 10 l-1040 0 27 -48z"/>
<path d="M5645 7388 c11 -6 43 -28 71 -49 28 -22 56 -39 62 -39 5 0 12 -3 14
-8 2 -4 28 -27 58 -50 66 -52 175 -156 247 -235 57 -63 179 -222 162 -212 -6
4 -5 -2 3 -14 7 -12 16 -21 20 -21 3 0 16 -19 27 -42 20 -40 106 -118 129
-118 5 0 12 -7 16 -15 3 -8 11 -15 18 -15 18 0 55 -42 68 -76 6 -16 18 -184
26 -374 17 -400 16 -385 52 -495 11 -33 23 -75 26 -93 4 -17 11 -32 14 -32 5
0 745 1274 1075 1852 l27 48 -1067 0 c-786 -1 -1063 -4 -1048 -12z"/>
<path d="M3429 5352 c-90 -43 -119 -73 -140 -144 -7 -26 11 -63 188 -369 108
-186 200 -339 205 -339 5 0 24 16 41 35 17 19 35 35 40 35 4 0 15 7 24 15 8 9
18 13 21 10 3 -3 11 -92 17 -198 l11 -192 75 -129 c42 -72 82 -132 90 -134 8
-3 11 -1 7 3 -7 8 26 104 39 114 5 3 20 24 36 47 33 48 153 174 166 174 6 0
15 8 20 18 6 9 11 13 11 9 0 -4 10 1 22 12 11 11 24 18 29 16 4 -3 13 0 21 7
16 16 46 28 203 81 116 39 125 41 276 45 144 3 164 2 250 -22 143 -39 340
-122 367 -154 9 -12 11 -12 6 -2 -4 8 29 -22 74 -66 74 -74 175 -211 170 -231
-2 -11 24 -66 36 -75 15 -10 20 -5 82 100 l57 97 8 135 c5 74 12 221 18 326 7
161 12 199 30 240 40 91 81 110 106 51 16 -39 20 -179 10 -324 -5 -60 -4 -103
1 -103 5 1 70 107 144 238 74 130 150 261 168 290 63 100 82 151 75 201 -16
118 -101 192 -205 178 -47 -6 -206 -80 -224 -105 -7 -9 -14 -14 -14 -9 0 9
-21 -9 -100 -86 -87 -84 -94 -116 -105 -487 -5 -166 -9 -199 -24 -220 -64 -88
-171 -14 -206 144 -36 159 -69 240 -113 277 -11 10 -24 23 -28 31 -33 53 -211
152 -330 183 -138 36 -389 27 -514 -18 -75 -28 -154 -67 -188 -94 -47 -36
-132 -122 -132 -132 0 -6 -5 -11 -11 -11 -15 0 -37 -58 -65 -178 -39 -165 -71
-220 -137 -236 -35 -8 -79 14 -95 49 -7 15 -12 71 -12 130 l0 104 55 55 c30
30 55 59 55 65 0 18 -30 13 -62 -10 -21 -16 -32 -18 -37 -10 -4 6 -13 57 -19
113 -15 128 -41 186 -117 261 -32 31 -62 57 -67 57 -4 0 -8 5 -8 10 0 6 -7 10
-15 10 -8 0 -15 5 -15 10 0 6 -4 10 -9 10 -5 0 -37 18 -70 40 -36 24 -72 40
-90 40 -24 0 -28 3 -24 20 7 26 -9 25 -78 -8z m361 -554 c11 -32 20 -78 20
-103 0 -40 -3 -47 -27 -56 -16 -6 -29 -9 -31 -7 -2 2 -8 -5 -13 -15 -6 -9 -14
-15 -20 -12 -5 4 -9 1 -9 -4 0 -6 -9 -11 -20 -11 -11 0 -20 3 -20 8 0 4 9 13
20 20 26 16 26 42 1 42 -11 0 -22 8 -25 18 -16 51 2 182 29 212 l19 21 28 -28
c15 -16 37 -54 48 -85z"/>
<path d="M3701 4861 c-6 -11 -11 -51 -11 -90 l0 -71 32 2 c25 2 34 -2 44 -20
17 -34 27 -10 19 45 -8 54 -36 123 -58 141 -13 11 -17 10 -26 -7z"/>
<path d="M5962 4829 c-27 -49 -38 -168 -47 -484 -8 -283 -13 -343 -36 -391
-26 -56 -77 -77 -142 -60 -23 5 -35 20 -63 84 -73 159 -180 269 -339 350 -69
34 -213 85 -307 107 -79 19 -253 19 -338 1 -105 -23 -279 -84 -335 -119 -97
-59 -131 -86 -189 -149 -62 -67 -136 -190 -136 -226 0 -28 -41 -52 -87 -52
-74 0 -118 36 -128 105 -3 22 -9 153 -13 292 -4 139 -11 255 -15 259 -11 11
-87 -67 -87 -88 0 -10 6 -21 14 -24 24 -9 27 -34 10 -71 -27 -55 -12 -411 27
-660 10 -65 14 -73 33 -73 27 0 46 -18 46 -43 0 -14 4 -17 18 -12 9 4 58 10
108 14 81 5 97 10 150 42 100 61 256 146 328 180 54 25 74 30 94 23 33 -12 47
-35 38 -65 -11 -38 -145 -137 -296 -217 -69 -37 -75 -42 -75 -72 0 -25 -9 -39
-39 -65 l-39 -32 34 -12 c41 -13 40 -14 264 119 253 150 323 182 409 188 109
7 177 -18 404 -148 107 -60 198 -110 203 -110 5 0 9 -4 9 -8 0 -5 33 -25 74
-45 41 -20 78 -41 81 -47 11 -18 79 -10 132 15 110 51 180 133 208 245 29 112
53 290 59 430 4 74 9 173 11 220 29 540 28 631 -6 638 -9 2 -24 -14 -37 -39z"/>
<path d="M4438 3781 c-32 -16 -93 -49 -135 -73 -43 -23 -87 -47 -97 -53 -28
-14 -29 -26 -6 -63 l20 -32 63 34 c65 34 110 62 137 83 8 7 39 31 68 54 88 69
54 103 -50 50z"/>
<path d="M4765 3646 c-58 -19 -273 -132 -305 -161 -9 -8 -24 -15 -33 -15 -9 0
-20 -6 -24 -14 -4 -8 -15 -16 -23 -18 -8 -2 -21 -9 -28 -15 -7 -7 -20 -13 -28
-13 -8 0 -14 -3 -14 -7 0 -15 564 -983 572 -981 4 2 131 217 281 478 200 346
271 477 263 485 -6 6 -47 30 -91 54 -44 24 -82 47 -85 51 -5 7 -15 13 -121 69
-123 65 -156 80 -200 90 -58 14 -115 13 -164 -3z"/>
</g>
</svg>
